<svg xmlns="http://www.w3.org/2000/svg" viewBox="0 0 16 16"><title>icons</title><g id="icn"><rect width="16" height="16" fill="none"/></g><g id="icn-menu"><path d="M14.5,8a.5.5,0,0,1-.5.5H2a.5.5,0,0,1,0-1H14A.5.5,0,0,1,14.5,8ZM2,3H14a.5.5,0,0,0,0-1H2A.5.5,0,0,0,2,3ZM14,13H2a.5.5,0,0,0,0,1H14a.5.5,0,0,0,0-1Z" transform="translate(0 0)"/></g><g id="icn-dbt"><path d="M13.252,9.446v0L11.31,6.086a3.839,3.839,0,0,0-.6-.794h0A3.731,3.731,0,0,0,7.067,4.3a4.565,4.565,0,0,1,5.519,2.023l.434.751a2.84,2.84,0,0,1,.232-.531l2.544-4.4A1.373,1.373,0,0,0,15.57.429,1.375,1.375,0,0,0,13.855.2h0l-4.4,2.542a2.905,2.905,0,0,1-2.9,0L2.145.2a1.431,1.431,0,0,0-.72-.2,1.423,1.423,0,0,0-1,.43A1.371,1.371,0,0,0,.2,2.143l2.544,4.4a2.907,2.907,0,0,1,0,2.9L.2,13.847A1.372,1.372,0,0,0,.43,15.561a1.37,1.37,0,0,0,1.715.225l4.4-2.542a2.878,2.878,0,0,1,.532-.232l-.751-.434A4.4,4.4,0,0,1,4.659,10.9,4.7,4.7,0,0,1,4.33,7.053a3.94,3.94,0,0,0,.376,2.866A3.59,3.59,0,0,0,6.09,11.3l3.361,1.94h0l4.4,2.542A1.42,1.42,0,0,0,15.8,13.847Zm.931-8.4a.547.547,0,1,1,0,.773A.547.547,0,0,1,14.183,1.043ZM1.817,1.816a.547.547,0,1,1,0-.773A.547.547,0,0,1,1.817,1.816Zm0,13.131a.546.546,0,1,1,0-.772A.546.546,0,0,1,1.817,14.947Zm7.8-6.74A1.168,1.168,0,1,0,8.212,9.614,1.638,1.638,0,1,1,9.619,8.207Zm5.337,6.74a.546.546,0,1,1,0-.772A.546.546,0,0,1,14.956,14.947Z" transform="translate(0 0)"/></g><g id="icn-doc-on"><path d="M13.707,4.707,10.293,1.293A1,1,0,0,0,9.586,1H3A1,1,0,0,0,2,2V14a1,1,0,0,0,1,1H13a1,1,0,0,0,1-1V5.414A1,1,0,0,0,13.707,4.707ZM5,4H9V5H5Zm6,8H5V11h6Zm0-2H5V9h6Zm0-2H5V7h6Z" transform="translate(0 0)"/></g><g id="icn-doc"><path d="M9.586,2h0L13,5.414V14H3V2H9.586m0-1H3A1,1,0,0,0,2,2V14a1,1,0,0,0,1,1H13a1,1,0,0,0,1-1V5.414a1,1,0,0,0-.293-.707L10.293,1.293A1,1,0,0,0,9.586,1Z" transform="translate(0 0)"/><rect x="5" y="11" width="6" height="1" fill="#fff"/><polygon points="11 11 5 11 5 12 11 12 11 11 11 11"/><rect x="5" y="9" width="6" height="1" fill="#fff"/><polygon points="11 9 5 9 5 10 11 10 11 9 11 9"/><rect x="5" y="7" width="6" height="1" fill="#fff"/><polygon points="11 7 5 7 5 8 11 8 11 7 11 7"/><rect x="5" y="4" width="4" height="1" fill="#fff"/><polygon points="9 4 5 4 5 5 9 5 9 4 9 4"/></g><g id="icn-down"><path d="M8,10.5a.5.5,0,0,1-.354-.146l-3-3a.5.5,0,0,1,.708-.708L8,9.293l2.646-2.647a.5.5,0,0,1,.708.708l-3,3A.5.5,0,0,1,8,10.5Z" transform="translate(0 0)"/></g><g id="icn-up"><path d="M11,9.5a.5.5,0,0,1-.354-.146L8,6.707,5.354,9.354a.5.5,0,0,1-.708-.708l3-3a.5.5,0,0,1,.708,0l3,3A.5.5,0,0,1,11,9.5Z" transform="translate(0 0)"/></g><g id="icn-left"><path d="M9.5,5a.5.5,0,0,1-.146.354L6.707,8l2.647,2.646a.5.5,0,0,1-.708.708l-3-3a.5.5,0,0,1,0-.708l3-3A.5.5,0,0,1,9.5,5Z" transform="translate(0 0)"/></g><g id="icn-right"><path d="M10.5,8a.5.5,0,0,1-.146.354l-3,3a.5.5,0,0,1-.708-.708L9.293,8,6.646,5.354a.5.5,0,0,1,.708-.708l3,3A.5.5,0,0,1,10.5,8Z" transform="translate(0 0)"/></g><g id="icn-dir"><path d="M14,4H8.414a1,1,0,0,1-.707-.293L6.293,2.293A1,1,0,0,0,5.586,2H2A1,1,0,0,0,1,3V13a1,1,0,0,0,1,1H14a1,1,0,0,0,1-1V5A1,1,0,0,0,14,4ZM2,3H5.586l1,1H2ZM14,13H2V5H14Z" transform="translate(0 0)"/></g><g id="icn-dir-on"><path d="M14.878,7H14V5a1,1,0,0,0-1-1H7.414a1,1,0,0,1-.707-.293L5.293,2.293A1,1,0,0,0,4.586,2H1A1,1,0,0,0,0,3V13a1,1,0,0,0,1,1H13.271a1,1,0,0,0,.952-.694l1.607-5A1,1,0,0,0,14.878,7ZM4.586,3,6,4.414A1.986,1.986,0,0,0,7.414,5H13V7H2.979a1,1,0,0,0-.952.694L1,10.889V3Z" transform="translate(0 0)"/></g><g id="icn-db-on"><path d="M8,1C7,1,2,1.121,2,3.5v9C2,14.879,7,15,8,15s6-.121,6-2.5v-9C14,1.121,9,1,8,1Zm5,10.482c0,.828-2.239,1.5-5,1.5s-5-.672-5-1.5V11c1.511.915,4.281.982,5,.982s3.489-.067,5-.982ZM13,8.5c0,.828-2.239,1.5-5,1.5S3,9.328,3,8.5V8.018C4.511,8.933,7.281,9,8,9s3.489-.067,5-.982Zm0-3C13,6.328,10.761,7,8,7S3,6.328,3,5.5V5.018C4.511,5.933,7.281,6,8,6s3.489-.067,5-.982Z" transform="translate(0 0)"/></g><g id="icn-db"><path d="M8,1C7,1,2,1.121,2,3.5v9C2,14.879,7,15,8,15s6-.121,6-2.5v-9C14,1.121,9,1,8,1ZM3,8.018C4.511,8.933,7.281,9,8,9s3.489-.067,5-.982V9.5c0,.828-2.239,1.5-5,1.5s-5-.672-5-1.5ZM8,8C5.239,8,3,7.328,3,6.5V5.018C4.511,5.933,7.281,6,8,6s3.489-.067,5-.982V6.5C13,7.328,10.761,8,8,8ZM8,2c2.761,0,5,.672,5,1.5S10.761,5,8,5,3,4.328,3,3.5,5.239,2,8,2ZM8,14c-2.761,0-5-.672-5-1.5V11.018C4.511,11.933,7.281,12,8,12s3.489-.067,5-.982V12.5C13,13.328,10.761,14,8,14Z" transform="translate(0 0)"/></g><g id="icn-close"><path d="M12.354,11.646a.5.5,0,0,1-.708.708L8,8.707,4.354,12.354a.5.5,0,0,1-.708-.708L7.293,8,3.646,4.354a.5.5,0,0,1,.708-.708L8,7.293l3.646-3.647a.5.5,0,0,1,.708.708L8.707,8Z" transform="translate(0 0)"/></g><g id="icn-more"><path d="M8,6a2,2,0,1,0,2,2A2,2,0,0,0,8,6ZM8,9A1,1,0,1,1,9,8,1,1,0,0,1,8,9ZM2,6A2,2,0,1,0,4,8,2,2,0,0,0,2,6ZM2,9A1,1,0,1,1,3,8,1,1,0,0,1,2,9ZM14,6a2,2,0,1,0,2,2A2,2,0,0,0,14,6Zm0,3a1,1,0,1,1,1-1A1,1,0,0,1,14,9Z" transform="translate(0 0)"/></g></svg>