<svg xmlns="http://www.w3.org/2000/svg" viewBox="0 0 160 24">
	<g id="brand">
		<g id="brand-logo"><path d="M20.237,9.2,22.7,4.7A2.5,2.5,0,0,0,19.3,1.305L13.047,4.718l4.817,2.627A9.443,9.443,0,0,1,20.237,9.2ZM20.5,2.5a1,1,0,1,1-1,1A1,1,0,0,1,20.5,2.5Z" fill="#f64"/><path d="M4.718,13.047,1.305,19.3A2.5,2.5,0,0,0,4.7,22.694L9.2,20.237a9.466,9.466,0,0,1-1.858-2.374ZM3.5,21.5a1,1,0,1,1,1-1A1,1,0,0,1,3.5,21.5Z" fill="#f64"/><path d="M17.4,9.594A7.484,7.484,0,0,0,14.406,6.6L4.7,1.305A2.5,2.5,0,0,0,1.305,4.7l5.3,9.708A7.478,7.478,0,0,0,9.594,17.4l9.709,5.3A2.5,2.5,0,0,0,22.7,19.3ZM3.5,4.5a1,1,0,1,1,1-1A1,1,0,0,1,3.5,4.5ZM13,11a1.994,1.994,0,0,0-1.353,3.464,2.494,2.494,0,1,1,2.817-2.817A1.983,1.983,0,0,0,13,11Zm7.5,10.5a1,1,0,1,1,1-1A1,1,0,0,1,20.5,21.5Z" fill="#f64"/></g><g id="brand-dbt"><path d="M44.763,3.214h3.466v17.18H45.255l-.492-1.754h-.171c-.114.142-.243.292-.385.449s-.282.31-.417.46-.265.285-.386.406a2.907,2.907,0,0,1-.267.247,3.578,3.578,0,0,1-.963.31,7.189,7.189,0,0,1-1.476.139,4.329,4.329,0,0,1-3.081-1.006,4.152,4.152,0,0,1-1-1.776,10.448,10.448,0,0,1-.364-3.059,9.756,9.756,0,0,1,.5-3.327,4.893,4.893,0,0,1,1.358-2.107A5.527,5.527,0,0,1,41.9,8.2a10.648,10.648,0,0,1,1.658.118q.738.117,1.209.224ZM39.778,14.489q0,2.268.706,2.974a1.684,1.684,0,0,0,.824.46,4.53,4.53,0,0,0,1.166.139,6.254,6.254,0,0,0,1.262-.128,5.584,5.584,0,0,0,1.027-.3V10.916c-.243-.028-.553-.057-.931-.085s-.752-.043-1.123-.043a5.444,5.444,0,0,0-1.2.117,1.932,1.932,0,0,0-.856.418A2.417,2.417,0,0,0,40,12.467,7.348,7.348,0,0,0,39.778,14.489Z"/><path d="M63.7,13.368a9.846,9.846,0,0,1-.546,3.541,4.981,4.981,0,0,1-1.443,2.128,4.722,4.722,0,0,1-1.669.845,8.967,8.967,0,0,1-2.482.289,13.567,13.567,0,0,1-2.407-.2A14.543,14.543,0,0,1,53.3,19.53l-.941.47h-.62V2.8H55.2v7h.172c.113-.128.246-.275.4-.439s.3-.321.438-.47.278-.289.406-.418a1.886,1.886,0,0,1,.3-.257,2.627,2.627,0,0,1,.941-.331A7.689,7.689,0,0,1,59.5,7.72a4.066,4.066,0,0,1,2.867.9,3.825,3.825,0,0,1,.995,1.786A11.114,11.114,0,0,1,63.7,13.368Zm-3.508.514q0-2.29-.706-2.975a2.508,2.508,0,0,0-1.755-.492,9.091,9.091,0,0,0-1.508.118,7.665,7.665,0,0,0-1.017.224v6.654a6.733,6.733,0,0,0,.856.107q.556.044,1.177.043a5.528,5.528,0,0,0,1.209-.118,1.922,1.922,0,0,0,.867-.417,2.276,2.276,0,0,0,.652-1.112A7.328,7.328,0,0,0,60.189,13.882Z"/><path d="M73.753,10.522H70.415v5.327a3.474,3.474,0,0,0,.086.846,1.11,1.11,0,0,0,.278.524.969.969,0,0,0,.513.256,4.1,4.1,0,0,0,.792.065c.356,0,.731-.014,1.123-.044s.7-.055.91-.085l-.258,2.354c-.371.1-.837.2-1.4.289a11.655,11.655,0,0,1-1.872.138,5.759,5.759,0,0,1-1.69-.213,2.6,2.6,0,0,1-1.112-.653,2.559,2.559,0,0,1-.621-1.123,6.161,6.161,0,0,1-.192-1.647V10.522H65.28L65.451,8h1.52V6.029l3.444-.642V8h3.83Z"/><rect x="76" y="23" width="7" height="1" fill="#f64"/></g><g id="brand-cloud"><path d="M89.97,9.174a7.3,7.3,0,0,0-1.883.214,2.807,2.807,0,0,0-1.284.706q-1.155,1.155-1.155,4.023a8.051,8.051,0,0,0,.288,2.342,3.037,3.037,0,0,0,.888,1.445,2.761,2.761,0,0,0,1.21.63,6.624,6.624,0,0,0,1.636.183,15.283,15.283,0,0,0,1.989-.119q.9-.117,1.54-.224v1.284a13.676,13.676,0,0,1-1.625.4,12.487,12.487,0,0,1-2.268.181,5.641,5.641,0,0,1-3.83-1.133q-1.624-1.476-1.625-4.857a10.029,10.029,0,0,1,.427-3.081A4.967,4.967,0,0,1,85.54,9.046a5.753,5.753,0,0,1,4.13-1.369,14.5,14.5,0,0,1,2.042.128c.592.086,1.089.171,1.487.257v1.39q-.555-.063-1.379-.171A14.534,14.534,0,0,0,89.97,9.174Z" fill="#f64"/><path d="M98.4,2.67V16.919a1.909,1.909,0,0,0,.408,1.434,1.672,1.672,0,0,0,1.154.364,7.925,7.925,0,0,0,.888-.044c.265-.028.5-.064.717-.106v1.3c-.285.072-.613.139-.983.2a6.943,6.943,0,0,1-1.177.1,2.669,2.669,0,0,1-2.1-.727,3.563,3.563,0,0,1-.641-2.375V2.67Z" fill="#f64"/><path d="M114.7,13.731a10.534,10.534,0,0,1-.406,3.091,4.875,4.875,0,0,1-1.134,2.045,4.514,4.514,0,0,1-1.658,1.015,7.7,7.7,0,0,1-2.621.375,7.247,7.247,0,0,1-2.556-.386,4.123,4.123,0,0,1-1.637-1.069,4.793,4.793,0,0,1-.92-1.669,8.713,8.713,0,0,1-.386-2.846,9.7,9.7,0,0,1,.461-3.144,4.961,4.961,0,0,1,1.272-2.1,4.9,4.9,0,0,1,1.691-.995,8.635,8.635,0,0,1,4.92-.032,3.722,3.722,0,0,1,1.541.942,4.546,4.546,0,0,1,1.059,1.8A9.59,9.59,0,0,1,114.7,13.731ZM108.989,18.8a5.106,5.106,0,0,0,1.658-.246,2.946,2.946,0,0,0,1.145-.674,3.727,3.727,0,0,0,.834-1.465,7.822,7.822,0,0,0,.321-2.45,12.793,12.793,0,0,0-.075-1.487,6.141,6.141,0,0,0-.214-1.081,3.275,3.275,0,0,0-.332-.759,3.816,3.816,0,0,0-.406-.546,2.785,2.785,0,0,0-1.07-.674,4.949,4.949,0,0,0-1.69-.246,4.762,4.762,0,0,0-1.7.268,3.018,3.018,0,0,0-1.059.631,3.714,3.714,0,0,0-.867,1.476,7.59,7.59,0,0,0-.374,2.568,8.936,8.936,0,0,0,.236,2.2,3.248,3.248,0,0,0,.662,1.39,3.105,3.105,0,0,0,1.092.782A4.522,4.522,0,0,0,108.989,18.8Z" fill="#f64"/><path d="M127.2,20l-.406-1.433h-.128a2.687,2.687,0,0,0-.194.225c-.085.106-.17.217-.256.33s-.168.218-.246.31-.125.14-.139.14a4.951,4.951,0,0,1-1.316.418,9.984,9.984,0,0,1-1.979.181,6.041,6.041,0,0,1-1.925-.246,2.926,2.926,0,0,1-1.177-.738,3.025,3.025,0,0,1-.749-1.337,7.265,7.265,0,0,1-.236-1.979V8h1.734v7.231a7.072,7.072,0,0,0,.171,1.743,2.18,2.18,0,0,0,.535,1.017,3.452,3.452,0,0,0,2.46.684,8.739,8.739,0,0,0,1.883-.2,8.035,8.035,0,0,0,1.541-.481V8h1.754V20Z" fill="#f64"/><path d="M141.246,2.606H143V20h-1.412l-.342-1.262h-.129c-.057.071-.128.156-.213.257s-.175.2-.268.3-.175.185-.246.257a1.273,1.273,0,0,1-.171.15,5.247,5.247,0,0,1-1.081.363,7.756,7.756,0,0,1-1.871.193,7.261,7.261,0,0,1-2.033-.247,3.569,3.569,0,0,1-1.39-.738,3.928,3.928,0,0,1-1.049-1.722,9.872,9.872,0,0,1-.407-3.155,10.55,10.55,0,0,1,.45-3.285A4.887,4.887,0,0,1,134.1,9a5.448,5.448,0,0,1,3.851-1.219,11.44,11.44,0,0,1,1.84.128c.514.086,1,.185,1.455.3Zm-7.06,11.617a8.335,8.335,0,0,0,.3,2.514,2.962,2.962,0,0,0,.791,1.337,2.608,2.608,0,0,0,1.092.546,6.2,6.2,0,0,0,1.583.182,9.542,9.542,0,0,0,1.723-.16,6.217,6.217,0,0,0,1.572-.5V9.495q-.556-.085-1.327-.181a13.327,13.327,0,0,0-1.669-.1,6.128,6.128,0,0,0-1.711.2,2.965,2.965,0,0,0-1.176.653,3.4,3.4,0,0,0-.857,1.508A9.023,9.023,0,0,0,134.186,14.223Z" fill="#f64"/></g>
	</g>
</svg>